# xmcd CD database file
#
# Track frame offsets:
#	150
#	19336
#	41437
#	53726
#	73175
#	93751
#	118379
#	145581
#	168040
#	185607
#	207979
#	225576
#	246166
#	265438
#	288079
#	305588
#
# Disc length: 4468 seconds
#
# Revision: 0
# Processed by: cddbd v1.5.1PL0 Copyright (c) Steve Scherf et al.
# Submitted via: CDex 1.51
#
DISCID=e3117210
DTITLE=Various Artist - blue breath "jazzy driving"- make the style volume 3
DYEAR=2005
DGENRE=Jazz
TTITLE0=Keiko Lee - The Flame
TTITLE1=urb - Changes
TTITLE2=TOKU - I Get Lost In Your Eyes
TTITLE3=Martin Taylor - Someday My Prince Will Come
TTITLE4=Michiko Takada - Don't Say A Word
TTITLE5=Yosuke Onuma - Feel Like Makin' Love
TTITLE6=TOKU - Roberta
TTITLE7=Chris Botti - Cinema Paradiso
TTITLE8=Jane Monheit - Over The Rainbow
TTITLE9=Toshiaki Matsumoto - Tsukino Niwa
TTITLE10=Keiko Lee - Old Devil Moon
TTITLE11=e.s.t. - Spam-Boo-Limbo
TTITLE12=Yoshiro Nakamura - Manha de Carnaval
TTITLE13=Terumasa Hino - Ember
TTITLE14=urb - Purple Rain
TTITLE15=The Bad Plus - Every Breath You Take
EXTD=YEAR: 2005
EXTT0=
EXTT1=
EXTT2=
EXTT3=
EXTT4=
EXTT5=
EXTT6=
EXTT7=
EXTT8=
EXTT9=
EXTT10=
EXTT11=
EXTT12=
EXTT13=
EXTT14=
EXTT15=
PLAYORDER=
